<svg xmlns="http://www.w3.org/2000/svg" viewBox="0 0 64 64">
  <defs>
    <linearGradient id="a" x1="8" y1="6" x2="56" y2="58" gradientUnits="userSpaceOnUse">
      <stop stop-color="#6d5dfc"/>
      <stop offset="1" stop-color="#8b5cf6"/>
    </linearGradient>
  </defs>
  <rect width="64" height="64" rx="18" fill="#111126"/>
  <rect x="4" y="4" width="56" height="56" rx="15" fill="url(#a)"/>
  <path d="M32 13c1.2 9.8 5.2 13.8 15 15-9.8 1.2-13.8 5.2-15 15-1.2-9.8-5.2-13.8-15-15 9.8-1.2 13.8-5.2 15-15Z" fill="white"/>
  <path d="M46 39c.6 4.9 2.6 6.9 7.5 7.5-4.9.6-6.9 2.6-7.5 7.5-.6-4.9-2.6-6.9-7.5-7.5 4.9-.6 6.9-2.6 7.5-7.5Z" fill="#ddd6fe"/>
</svg>
